<?xml version='1.0' encoding='iso-8859-1'?>
<!-- Uploaded to: SVG Repo, www.svgrepo.com, Generator: SVG Repo Mixer Tools -->
<svg fill="#000000" height="800px" width="800px" version="1.1" xmlns="http://www.w3.org/2000/svg" viewBox="0 0 296 296" xmlns:xlink="http://www.w3.org/1999/xlink" enable-background="new 0 0 296 296">
  <g>
    <path d="M247.333,115.167H198v132h16.666c0,18,14.553,32.5,32.5,32.5c17.947,0,32.5-14.5,32.5-32.5H296v-81.75L247.333,115.167z"/>
    <path d="m144.528,16.333l-37.018,48.834h57.43c-0.857-29.65-20.412-48.834-20.412-48.834z"/>
    <path d="m37.137,16.333c0,0-19.554,19.184-20.41,48.834h57.43l-37.02-48.834z"/>
    <path d="M107,214.167l-16.5-16.5L74,213.668V82.167H0v165h16.333c0,18,14.553,32.5,32.5,32.5c17.947,0,32.5-14.5,32.5-32.5H181   v-165h-74V214.167z"/>
  </g>
</svg>